<?xml version="1.0" encoding="UTF-8" standalone="no"?>
<svg id="svg2" xmlns:rdf="http://www.w3.org/1999/02/22-rdf-syntax-ns#" xmlns="http://www.w3.org/2000/svg" height="316.09mm" width="428.98mm" version="1.1" xmlns:cc="http://creativecommons.org/ns#" xmlns:dc="http://purl.org/dc/elements/1.1/" viewBox="0 0 1520 1120">
<defs id="defs4">
<pattern id="pattern4175" width="760" patternUnits="userSpaceOnUse" patternTransform="translate(-109.35 377.23)" height="560">
<g id="g4171" transform="translate(109.35 -377.23)">
<path id="path4147" d="m0 10v0.01367h10.014v-0.01367h-10.014zm10.014 0.01367v10.014h10.014v-10.014h-10.014zm10.014 10.014v10.014h10.016v-10.014h-10.016zm10.016 10.014v10.014h10.014v-10.014h-10.014zm10.014 10.014v10.014h10.014v-10.014h-10.014zm10.014 10.014v9.8594h10.014v-9.8594h-10.014zm10.014 9.8594v10.012h9.8613v-10.012h-9.8613zm9.8613 10.012v10.014h10.014v-10.014h-10.014zm10.014 10.014v10.014h10.014v-10.014h-10.014zm10.014 10.014v10.014h10.016v-10.014h-10.016zm10.016 10.014v10.014h10.014v-10.014h-10.014zm10.014 10.014v10.014h10.014v-10.014h-10.014zm10.014 10.014v10.014h10.016v-10.014h-10.016zm10.016 10.014v10.014h10.014v-10.014h-10.014zm10.014 10.014v10.014h10.014v-10.014h-10.014zm10.014 10.014v10.014h10.014v-10.014h-10.014zm10.014 10.014v9.8594h9.8613v10.014h10.014v-10.014h-9.8594v-9.8594h-10.016zm19.875 19.873v10.014h10.014v-10.014h-10.014zm10.014 10.014v10.014h10.016v-10.014h-10.016zm10.016 0h10.014v-10.014h-10.014v10.014zm10.014-10.014h10.014v-10.014h-10.014v10.014zm10.014-10.014h10.014v-9.8594h-10.014v9.8594zm10.014-9.8594h10.016v-10.014h-10.016v10.014zm10.016-10.014h10.014v-10.014h-10.014v10.014zm10.014-10.014h10.014v-10.014h-10.014v10.014zm10.014-10.014h10.016v-10.014h-10.016v10.014zm10.016-10.014h10.014v-10.014h-10.014v10.014zm10.014-10.014h9.8594v-10.014h-9.8594v10.014zm-219.99-100v0.01367h9.8613v-0.01367h-9.8613zm9.8613 0.01367v10.014h10.014v-10.014h-10.014zm10.014 0h10.014v-0.01367h-10.014v0.01367zm10.014 0v10.014h10.016v-10.014h-10.016zm10.016 0h10.014v-0.01367h-10.014v0.01367zm-10.016 10.014h-10.014v10.014h10.014v-10.014zm89.977-10.028v0.01367h10.014v10.014h10.016v-10.014h10.014v-0.01367h-30.043zm100.14 0v0.01367h9.8594v-0.01367h-9.8594zm19.873 0v0.01367h10.016v-0.01367h-10.016zm10.016 0.01367v10.014h10.014v-10.014h-10.014zm10.014 0h10.014v-0.01367h-10.014v0.01367zm-10.014 10.014h-10.016v10.014h10.016v-10.014zm-10.016 0v-10.014h-9.8594v10.014h9.8594zm80.12-10.028v0.01367h10.014v-0.01367h-10.014zm10.014 0.01367v10.014h9.8613v-10.014h-9.8613zm-10.014 0h-10.014v10.014h10.014v-10.014zm-10.014 10.014h-10.016v10.014h10.016v-10.014zm-10.016 10.014h-10.014v10.014h10.014v-10.014zm-10.014 10.014h-10.014v10.014h10.014v-10.014zm-10.014 10.014h-10.016v9.8594h10.016v-9.8594zm-10.016 9.8594h-10.014v10.012h10.014v-10.012zm-10.014 10.012h-10.014v10.014h10.014v-10.014zm-10.014 10.014h-10.016v10.014h10.016v-10.014zm-10.016 10.014h-9.8594v10.014h9.8594v-10.014zm209.99-79.953v10.014h-9.8594v10.014h-10.016v10.014h-10.014v10.014h10.014 10.016 9.8594 10.014 10.016v-10.014h10.014v-10.014h10.014v-10.014h10.016v-10.014h-10.016-10.014-10.014-10.016-10.014zm50.072 10.014v10.014h-10.016v10.014h-10.014v10.014h-10.014v9.8594 10.012 10.014 10.014 10.014h10.014v-10.014h10.014v-10.014h10.016v-10.014h10.014v-10.012-9.8594-10.014-10.014-10.014h-10.014zm30.043-10.014v10.014h10.014v10.014h10.014v10.014h9.8613v10.014h10.014 10.014 10.016 10.014 10.014v-10.014h-10.014v-10.014h-10.014v-10.014h-10.016v-10.014h-10.014-10.014-9.8613-10.014-10.014zm29.889 40.055h-9.8613v-10.014h-10.014v-10.014h-10.014v-10.014h-10.016v10.014 10.014 10.014 9.8594 10.012h10.016v10.014h10.014v10.014h10.014v10.014h9.8613v-10.014-10.014-10.014-10.012-9.8594zm130.03-40.055v10.014h10.014v-10.014h-10.014zm0 10.014h-10.016v10.014h10.016v-10.014zm-10.016 10.014h-9.8594v10.014h9.8594v-10.014zm-9.8594 10.014h-10.014v10.014h10.014v-10.014zm-10.014 10.014h-10.016v9.8594h10.016v-9.8594zm-10.016 9.8594h-10.014v10.012h10.014v-10.012zm-10.014 10.012h-10.012v10.014h10.012v-10.014zm-10.012 10.014h-10.014v10.014h10.014v-10.014zm-10.014 10.014h-10.016v10.014h10.016v-10.014zm-10.016 10.014h-10.014v10.014h10.014v-10.014zm-10.014 10.014h-10.014v10.014h10.014v-10.014zm-10.02 10.01h-10.016v10.014h10.016v-10.014zm-10.016 10.014h-10.014v10.014h10.014v-10.014zm-10.014 10.014h-10.014v10.014h-9.8613v10.014h10.016v-10.014h9.8594v-10.014zm-19.875 20.027h-10.014v9.8594h10.014v-9.8594zm-10.014 9.8594h-10.014v10.014h10.014v-10.014zm-10.014 10.014h-10.016v10.014h10.016v-10.014zm-10.016 10.014h-10.014v10.014h10.014v-10.014zm-10.014 0v-10.014h-10.014v10.014h10.014zm-10.014-10.014v-10.014h-10.016v10.014h10.016zm-10.016-10.014v-9.8594h-10.014v9.8594h10.014zm-10.014-9.8594v-10.014h-10.014v10.014h10.014zm-10.014-10.014v-10.014h-10.016v10.014h10.016zm-10.016-10.014v-10.014h-10.014v10.014h10.014zm-10.014-10.014v-10.014h-9.8594v10.014h9.8594zm-9.8594-10.014v-10.014h-10.016v10.014h10.016zm-10.016-10.014v-10.014h-10.014v10.014h10.014zm-10.014-10.014v-10.014h-10.014v10.014h10.014zm-10.014-10.014v-10.014h-10.014v10.014h10.014zm-10.014-10.014v-10.014h-10.016v10.014h10.016zm-10.016-10.014v-10.012h-10.014v10.012h10.014zm-10.014-10.012v-9.8594h-10.014v9.8594h10.014zm-10.014-9.8594v-10.014h-10.016v10.014h10.016zm-10.016-10.014v-10.014h-10.012v10.014h10.012zm-10.012-10.014v-10.014h-9.8613v10.014h9.8613zm-269.92 20.027v9.8594h10.014v-9.8594h-10.014zm0 9.8594h-10.014v10.012h10.014v-10.012zm-10.014 10.012h-10.016v10.014h10.016v-10.014zm0 10.014v10.014h10.014v-10.014h-10.014zm-10.016 0h-10.014v10.014h10.014v-10.014zm0-10.014v-10.012h-10.014v10.012h10.014zm120.02-19.871v9.8594h10.014v-9.8594h-10.014zm10.014 9.8594v10.012h10.014v-10.012h-10.014zm10.014 10.012v10.014h10.016v-10.014h-10.016zm10.016 0h10.014v-10.012h-10.014v10.012zm0 10.014v10.014h10.014v-10.014h-10.014zm-10.016 0h-10.014v10.014h10.014v-10.014zm-260.08-20.039v10.012h10.014v20.027h30.043v-20.027-10.012h-40.057zm40.057 30.039v30.041h29.889v-20.027-10.014h-29.889zm29.889 30.041v30.041h30.043v-20.027-10.014h-30.043zm30.043 30.041v29.887h30.043v-19.873-10.014h-30.043zm30.043 29.887v30.039h30.041v-20.025-10.014h-30.041zm30.041 30.039v30.041h69.945v-30.041h-20.027-10.014v20.027h-10.016v-20.027h-29.889zm69.945 0h30.043v-30.039h-20.027-10.016v30.039zm30.043-30.039h29.889v-29.887h-19.873-10.016v29.887zm29.889-29.887h30.043v-30.041h-20.029-10.014v30.041zm30.043-30.041h30.043v-30.041h-20.029-10.014v30.041zm30.043-30.041h30.043v-20.027h10.014v20.027h29.887v-20.027-10.012h-69.943v30.039zm69.943 0v30.041h30.043v-20.027-10.014h-30.043zm30.043 30.041v30.041h30.043v-20.027-10.014h-30.043zm30.043 30.041v29.887h29.889v-19.873-10.014h-29.889zm29.889 29.887v30.039h30.043v-20.025-10.014h-30.043zm30.043 30.039v30.041h70.1v-30.041h-20.027-10.016v20.027h-10.014v-20.027h-30.043zm70.1 0h29.889v-30.039h-20.027-9.8613v30.039zm29.889-30.039h30.043v-29.887h-20.027-10.016v29.887zm30.043-29.887h30.041v-30.041h-20.025-10.016v30.041zm30.041-30.041h30.043v-30.041h-20.029-10.014v30.041zm30.043-30.041h29.889v-30.039h-20.029-9.8594v30.039zm-710.06-20.03h10.016v10.014h-10.016v-10.014zm340.02 0h10.016v10.014h-10.016v-10.014zm39.904 0h10.014v10.014h-10.014v-10.014zm340.02 0h10.016v10.014h-10.016v-10.014zm-550.01 20.027v10.014h10.016v-10.014h-10.016zm10.016 10.014v10.014h10.014v-10.014h-10.014zm10.014 10.014v10.014h10.014v-10.014h-10.014zm0 10.014h-10.014v10.014h10.014v-10.014zm-10.014 10.014h-10.016v10.014h10.016v-10.014zm-10.016 0v-10.014h-10.014v10.014h10.014zm-10.014-10.014v-10.014h-10.014v10.014h10.014zm0-10.014h10.014v-10.014h-10.014v10.014zm10.014 0v10.014h10.016v-10.014h-10.016zm-189.96-10.01v10.014h10.014v-10.014h-10.014zm10.014 10.014v10.014h10.014v-10.014h-10.014zm10.014 10.014v10.014h10.016v-10.014h-10.016zm10.016 10.014v10.014h10.014v-10.014h-10.014zm10.014 10.014v10.014h10.014v-10.014h-10.014zm10.014 10.014v10.014h10.014v-10.014h-10.014zm10.014 10.014v9.8594h9.8613v-9.8594h-9.8613zm9.8613 9.8594v10.014h10.014v-10.014h-10.014zm10.014 10.014v10.014h10.014v-10.014h-10.014zm10.014 10.014v10.014h10.016v-10.014h-10.016zm10.016 10.014v10.012h10.014v-10.012h-10.014zm10.014 10.012v10.014h10.014v-10.014h-10.014zm10.014 10.014v10.014h10.016v-10.014h-10.016zm10.016 10.014v10.014h10.014v-10.014h-10.014zm10.014 10.014v10.014h10.014v-10.014h-10.014zm10.014 10.014v10.014h10.014v-10.014h-10.014zm10.014 10.014v10.014h9.8613v9.8594h10.014v-9.8594h-9.8594v-10.014h-10.016zm19.875 19.873v10.014h10.014 10.016 10.014v-10.014h-10.014-10.016-10.014zm30.043 0h10.014v-9.8594h-10.014v9.8594zm10.014-9.8594h10.014v-10.014h-10.014v10.014zm10.014-10.014h10.016v-10.014h-10.016v10.014zm10.016-10.014h10.014v-10.014h-10.014v10.014zm10.014-10.014h10.014v-10.014h-10.014v10.014zm10.014-10.014h10.016v-10.014h-10.016v10.014zm10.016-10.014h10.014v-10.014h-10.014v10.014zm10.014-10.014h9.8594v-10.012h-9.8594v10.012zm-70.1 79.955v10.014h10.014v-10.014h-10.014zm10.014 10.014v10.014h10.014v-10.014h-10.014zm10.014 10.014v10.014h10.016v-10.014h-10.016zm10.016 10.014v10.014h10.014v-10.014h-10.014zm10.014 10.014v10.014h10.014v-10.014h-10.014zm10.014 10.014v10.014h10.016v-10.014h-10.016zm10.016 10.014v10.014h10.014v-10.014h-10.014zm10.014 10.014v10.014h9.8594v-10.014h-9.8594zm-100.14-70.096h-10.014v10.014h-9.8613v10.014h10.016v-10.014h9.8594v-10.014zm-19.875 20.027h-10.014v10.014h10.014v-10.014zm-10.014 10.014h-10.014v10.014h10.014v-10.014zm-10.014 10.014h-10.014v10.014h10.014v-10.014zm-10.014 10.014h-10.016v10.014h10.016v-10.014zm-10.016 10.014h-10.014v10.014h10.014v-10.014zm-10.014 10.014h-10.014v10.014h10.014v-10.014zm-10.014 10.014h-10.016v10.014h10.016v-10.014zm-10.016 10.014h-10.014v9.8594h10.014v-9.8594zm-10.014 9.8594h-10.014v10.014h10.014v-10.014zm-10.014 10.014h-9.8613v10.014h9.8613v-10.014zm-9.8613 10.014h-10.014v10.012h10.014v-10.012zm-10.014 10.012h-10.014v10.012h10.014v-10.012zm-10.014 10.012h-10.014v10.014h10.014v-10.014zm-10.014 10.014h-10.016v10.014h10.016v-10.014zm-10.016 10.014h-10.014v10.014h10.014v-10.014zm-10.014 10.014h-10.014v10.014h10.014v-10.014zm40.057-360.02h10.014v10.014h-10.014v-10.014zm279.94 0h10.016v10.014h-10.016v-10.014zm50.072 0v10.014h10.014v-10.014h-10.014zm10.014 10.014v10.014h9.8613v-10.014h-9.8613zm-10.014 0h-10.014v10.014h10.014v-10.014zm-10.014 10.014h-10.016v10.014h10.016v-10.014zm-10.016 10.014h-10.014v10.014h10.014v-10.014zm-10.014 10.014h-10.014v10.014h10.014v-10.014zm-10.014 10.014h-10.016v10.014h10.016v-10.014zm-10.016 10.014h-10.014v9.8594h10.014v-9.8594zm-10.014 9.8594h-10.014v10.014h10.014v-10.014zm-10.014 10.014h-10.016v10.014h10.016v-10.014zm-10.016 10.014h-9.8594v10.014h9.8594v-10.014zm0 10.014v10.012h10.016v-10.012h-10.016zm10.016 10.012v10.014h10.014v-10.014h-10.014zm10.014 0h10.014v-10.012h-10.014v10.012zm0 10.014v10.014h10.014v-10.014h-10.014zm10.014 10.014v10.014h10.016v-10.014h-10.016zm-20.027-10.014h-10.016v10.014h10.016v-10.014zm120.02-120.01h10.014v10.014h-10.014v-10.014zm280.09 0h10.016v10.014h-10.016v-10.014zm39.904 10.014v10.014h10.014v-10.014h-10.014zm0 10.014h-10.016v10.014h10.016v-10.014zm-10.016 10.014h-9.8594v10.014h9.8594v-10.014zm-9.8594 10.014h-10.014v10.014h10.014v-10.014zm-10.014 10.014h-10.016v10.014h10.016v-10.014zm-10.016 10.014h-10.014v9.8594h10.014v-9.8594zm-10.014 9.8594h-10.012v10.014h10.012v-10.014zm-10.012 10.014h-10.014v10.014h10.014v-10.014zm-10.014 10.014h-10.016v10.014h10.016v-10.014zm-10.016 10.014h-10.014v10.012h10.014v-10.012zm-10.014 10.012h-10.014v10.014h10.014v-10.014zm-10 10.19h-10.016v10.014h10.016v-10.014zm-10.016 10.014h-10.014v10.014h10.014v-10.014zm-10.014 10.014h-10.014v10.014h-9.8613v10.014h10.016v-10.014h9.8594v-10.014zm-19.875 20.027h-10.014v10.014h10.014v-10.014zm-10.014 10.014h-10.014v9.8594h10.014v-9.8594zm-10.014 9.8594h-10.016-10.014-10.014v10.014h10.014 10.014 10.016v-10.014zm0 10.014v10.014h10.014v-10.014h-10.014zm10.014 10.014v10.014h10.014v-10.014h-10.014zm10.014 10.014v10.014h9.8613v10.014h10.014v-10.014h-9.8594v-10.014h-10.016zm19.875 20.027v10.014h10.014v-10.014h-10.014zm10.014 10.014v10.014h10.016v-10.014h-10.016zm10.01 10.03v10.014h10.014v-10.014h-10.014zm10.014 10.014v10.014h10.014v-10.014h-10.014zm10.014 10.014v10.014h10.016v-10.014h-10.016zm10.016 10.014v9.8594h10.014v-9.8594h-10.014zm10.014 9.8594v10.014h10.012v-10.014h-10.012zm10.012 10.014v10.014h10.014v-10.014h-10.014zm10.014 10.014v10.012h10.016v-10.012h-10.016zm10.016 10.012v10.012h10.014v-10.012h-10.014zm10.014 10.012v10.014h9.8594v-10.014h-9.8594zm9.8594 10.014v10.014h10.016v-10.014h-10.016zm10.016 10.014v10.014h10.014v-10.014h-10.014zm-189.96-160.06h-10.016v10.014h10.016v-10.014zm-10.016 10.014h-10.014v10.014h10.014v-10.014zm-10.014 10.014h-10.014v10.014h10.014v-10.014zm-10.014 10.014h-10.016v10.014h10.016v-10.014zm-10.016 10.014h-10.014v10.014h10.014v-10.014zm-10.014 10.014h-9.8594v10.014h9.8594v-10.014zm-9.8594 10.014h-10.016v10.014h10.016v-10.014zm-10.016 10.014h-10.014v10.014h10.014v-10.014zm-10.014 10.014h-10.014v10.014h10.014v-10.014zm-10.014 10.014h-10.014v9.8594h10.014v-9.8594zm-10.014 9.8594h-10.016v10.014h10.016v-10.014zm-10.016 10.014h-10.014v10.014h10.014v-10.014zm-10.014 10.014h-10.014v10.012h10.014v-10.012zm-10.014 10.012h-10.016v10.012h10.016v-10.012zm-10.016 10.012h-10.012v10.014h10.012v-10.014zm-10.012 10.014h-9.8613v10.014h9.8613v-10.014zm60.084-69.938v-10.014h-10.014v10.014h10.014zm-10.014-10.014v-10.014h-10.016v10.014h10.016zm-10.016 0h-10.014v10.014h10.014v-10.014zm0-10.014v-10.014h-10.014v10.014h10.014zm-10.014-10.014v-10.014h-10.014v10.014h10.014zm20.029 10.014h10.014v-10.014h-10.014v10.014zm99.988-70.096v-9.8594h-10.016v9.8594h10.016zm-10.016-9.8594v-10.014h-10.014v10.014h10.014zm-10.014-10.014v-10.014h-10.014v10.014h10.014zm-10.014-10.014v-10.014h-10.016v10.014h10.016zm-10.016-10.014v-10.014h-10.014v10.014h10.014zm-10.014-10.014v-10.014h-9.8594v10.014h9.8594zm-9.8594-10.014v-10.014h-10.016v10.014h10.016zm-10.016-10.014v-10.012h-10.014v10.012h10.014zm-10.014-10.012v-10.014h-10.014v10.014h10.014zm-10.014 0h-10.014v10.012h10.014v-10.012zm-10.014 10.012h-10.016v10.014h10.016v-10.014zm0 10.014v10.014h10.014v-10.014h-10.014zm-10.016 0h-10.014v10.014h10.014v-10.014zm-10.014 10.014h-10.014v10.014h10.014v-10.014zm10.014-20.027v-10.012h-10.014v10.012h10.014zm20.029-20.025v-10.014h-10.014v10.014h10.014zm-10.014-10.014v-10.014h-10.016v10.014h10.016zm-10.016-10.014v-9.8594h-10.014v9.8594h10.014zm-10.014-9.8594v-10.014h-10.014v10.014h10.014zm-10.014-10.014v-10.014h-10.016v10.014h10.016zm-10.016-10.014v-10.014h-10.012v10.014h10.012zm-10.012-10.014v-10.014h-9.8613v10.014h9.8613zm-330.01 0h10.014v10.014h-10.014v-10.014zm220 0h10.016v10.014h-10.016v-10.014zm160.07 0h10.014v10.014h-10.014v-10.014zm220.01 0h10.014v10.014h-10.014v-10.014zm-299.96 20.027v10.014h10.014v-10.014h-10.014zm10.014 10.014v9.8594h9.8613v-9.8594h-9.8613zm0 9.8594h-10.014v10.014h10.014v-10.014zm0 10.014v10.014h9.8613v-10.014h-9.8613zm0 10.014h-10.014v10.014h10.014v-10.014zm-10.014 0v-10.014h-10.014v10.014h10.014zm-10.014-10.014v-10.014h-10.016v10.014h10.016zm0-10.014h10.014v-9.8594h-10.014v9.8594zm-260.06-9.8594h10.014v9.8594h-10.014v-9.8594zm160.07 0h10.014v9.8594h-10.014v-9.8594zm220 0h10.016v9.8594h-10.016v-9.8594zm159.92 0h10.014v9.8594h-10.014v-9.8594zm-249.89 9.8594v10.014h9.8613v-10.014h-9.8613zm-360.05 20.027v10.014h-10.014v10.012h-10.016v10.014h-10.014v10.014 10.014 10.014 10.014 10.014h10.014v-10.014h10.016v-10.014h10.014v-10.014h10.014v-10.014-10.014-10.014-10.012-10.014h-10.014zm10.014 50.066v10.014h-10.014v10.014h-10.014v10.014h-10.016v9.8594h10.016 10.014 10.014 10.014 9.8613v-9.8594h10.014v-10.014h10.014v-10.014h10.016v-10.014h-10.016-10.014-10.014-9.8613-10.014zm89.975-50.066h10.014v10.014h-10.014v-10.014zm99.988 0h10.014v10.014h-10.014v-10.014zm279.93 0h10.016v10.014h-10.016v-10.014zm99.99 0h10.014v10.014h-10.014v-10.014zm100.14 0v10.014 10.012 10.014 10.014 10.014h10.014v10.014h9.8594v10.014h10.016v10.014h10.014v-10.014-10.014-10.014-10.014-10.014h-10.014v-10.014h-10.016v-10.012h-9.8594v-10.014h-10.014zm29.889 80.107h-10.016v-10.014h-9.8594v-10.014h-10.014v-10.014h-10.016-10.014-10.012-10.014-10.016v10.014h10.016v10.014h10.014v10.014h10.012v9.8594h10.014 10.016 10.014 9.8594 10.016v-9.8594zm-579.9-50.068h9.8594v10.014h-9.8594v-10.014zm39.902 0h10.014v10.014h-10.014v-10.014zm340.02 0h10.016v10.014h-10.016v-10.014zm40.059 0h10.014v10.014h-10.014v-10.014zm-319.99 40.055v10.014h10.014v-10.014h-10.014zm10.014 10.014v9.8594h9.8594v-9.8594h-9.8594zm0 9.8594h-10.014v10.014h10.014v-10.014zm0 10.014v10.014h9.8594v-10.014h-9.8594zm0 10.014h-10.014v10.014h10.014v-10.014zm-10.014 0v-10.014h-10.016v10.014h10.016zm-10.016-10.014v-10.014h-10.014v10.014h10.014zm0-10.014h10.016v-9.8594h-10.016v9.8594zm230.02-19.873v10.014h10.016v-10.014h-10.016zm10.016 10.014v9.8594h9.8594v-9.8594h-9.8594zm9.8594 9.8594v10.014h10.014v-10.014h-10.014zm0 10.014h-9.8594v10.014h9.8594v-10.014zm-9.8594 10.014h-10.016v10.014h10.016v-10.014zm-10.016 0v-10.014h-10.014v10.014h10.014zm-10.014-10.014v-10.014h-10.014v10.014h10.014zm0-10.014h10.014v-9.8594h-10.014v9.8594zm10.014 0v10.014h10.016v-10.014h-10.016zm-110-9.8594v9.8594h-10.014v10.014h10.014v10.014h10.014v-10.014h10.014v-10.014h-10.014v-9.8594h-10.014zm-89.975 9.8594v10.014h9.8594v-10.014h-9.8594zm-270.08 10.014v10.014h10.016v10.014h10.014v10.014h10.014v10.014h10.014 9.8613 10.014 10.014 10.016v-10.014h-10.016v-10.014h-10.014v-10.014h-10.014v-10.014h-9.8613-10.014-10.014-10.014-10.016zm30.043 40.055h-10.014v-10.014h-10.014v-10.014h-10.016v-10.014h-10.014v10.014 10.014 10.014 10.014 10.014h10.014v10.014h10.016v10.014h10.014v10.014h10.014v-10.014-10.014-10.014-10.014-10.014zm650-40.055v10.014h-10.012v10.014h-10.014v10.014h-10.016v10.014h10.016 10.014 10.012 10.014 10.016v-10.014h10.014v-10.014h9.8594v-10.014h10.016v-10.014h-10.016-9.8594-10.014-10.016-10.014zm49.918 10.014v10.014h-10.016v10.014h-9.8594v10.014h-10.014v10.014 10.014 10.014 10.014 10.014h10.014v-10.014h9.8594v-10.014h10.016v-10.014h10.014v-10.014-10.014-10.014-10.014-10.014h-10.014zm-589.91 30.041v30.041h69.945v-20.027-10.014h-30.041v20.027h-10.016v-20.027h-29.889zm69.945 30.041v29.887h30.043v-19.873-10.014h-30.043zm30.043 29.887v30.039h29.889v30.039h30.043v-20.027-10.012h-29.889v-20.025-10.014h-30.043zm59.932 60.078v30.041h30.043v-20.027-10.014h-30.043zm30.043 30.041v29.887h69.943v-29.887h-19.873-10.014v19.873h-10.014v-19.873h-30.043zm69.943 0h30.043v-30.041h-20.027-10.016v30.041zm30.043-30.041h30.043v-30.039h-20.027-10.016v30.039zm30.043-30.039h29.889v-30.039h-19.875-10.014v30.039zm29.889-30.039h30.043v-29.887h-20.029-10.014v29.887zm30.043-29.887h70.1v-20.027-10.014h-30.043v20.027h-10.014v-20.027h-30.043v30.041zm70.1 0v29.887h29.889v-19.873-10.014h-29.889zm29.889 29.887v30.039h30.043v-20.025-10.014h-30.043zm30.043 30.039v30.039h30.041v-20.027-10.012h-30.041zm30.041 30.039v30.041h30.043v-20.027-10.014h-30.043zm30.043 30.041v29.887h29.889v-29.887h-20.029-9.8594zm-570.04-120.01h-20.027-10.014v29.887h30.041v-29.887zm-30.041 29.887h-20.029-10.014v30.039h30.043v-30.039zm-30.043 30.039h-20.029-10.014v30.039h30.043v-30.039zm-30.043 30.039h-19.875-10.014v30.041h29.889v-30.041zm-29.889 30.041h-20.029-10.014v19.873h-10.014v10.014h40.057v-29.887zm289.95-150.05v10.014h10.016v-10.014h-10.016zm0 10.014h-10.014v10.014h10.014v-10.014zm-10.014 10.014h-10.014v10.014h10.014v-10.014zm0 10.014v10.014h10.014v-10.014h-10.014zm-10.014 0h-10.016v10.014h10.016v-10.014zm-10.016 10.014h-9.8594v10.014h9.8594v-10.014zm0 10.014v9.8594h10.016v-9.8594h-10.016zm10.016 9.8594v10.014h10.014v-10.014h-10.014zm10.014 10.014v10.014h10.014v-10.014h-10.014zm10.014 10.014v10.012h10.016v-10.012h-10.016zm10.016 10.012v10.012h10.014v-10.012h-10.014zm10.014 10.012v10.014h10.014v-10.014h-10.014zm10.014 10.014v10.014h10.016v-10.014h-10.016zm10.016 10.014v10.014h10.014v-10.014h-10.014zm10.014 10.014v10.014h10.014v-10.014h-10.014zm10.014 0h9.8613v-10.014h-9.8613v10.014zm-80.113-109.99v-10.014h-10.016v10.014h10.016zm-139.89-10.014h9.8594v10.014h-9.8594v-10.014zm39.902 0h10.014v10.014h-10.014v-10.014zm340.02 0h10.016v10.014h-10.016v-10.014zm40.059 0h10.014v10.014h-10.014v-10.014zm-450.02 30.041h10.014v10.014h-10.014v-10.014zm49.916 0v10.014h10.016v-10.014h-10.016zm10.016 10.014v9.8594h10.014v-9.8594h-10.014zm10.014 9.8594v10.014h10.014v-10.014h-10.014zm10.014 10.014v10.014h10.014v-10.014h-10.014zm10.014 10.014v10.012h10.016v-10.012h-10.016zm10.016 10.012v10.012h10.014v-10.012h-10.014zm10.014 10.012v10.014h10.014v-10.014h-10.014zm10.014 10.014v10.014h10.016v-10.014h-10.016zm10.016 10.014v10.014h10.014v-10.014h-10.014zm10.014 10.014v10.014h9.8594v-10.014h-9.8594zm-90.129-79.951h-10.014v9.8594h10.014v-9.8594zm-10.014 9.8594h-10.014v10.014h-9.8613v10.014h10.016v-10.014h9.8594v-10.014zm-19.875 20.027h-10.014v10.012h10.014v-10.012zm-10.014 10.012h-10.014v10.012h10.014v-10.012zm-10.014 10.012h-10.014v10.014h10.014v-10.014zm-10.014 10.014h-10.016v10.014h10.016v-10.014zm-10.016 10.014h-10.014v10.014h10.014v-10.014zm-10.014 10.014h-10.014v10.014h10.014v-10.014zm-10.014 10.014h-10.016v10.014h10.016v-10.014zm-10.016 10.014h-10.014v10.014h10.014v-10.014zm-10.014 10.014h-10.014v9.8594h10.014v-9.8594zm-10.014 9.8594h-9.8613v10.014h9.8613v-10.014zm-9.8613 10.014h-10.014v10.014h10.014v-10.014zm-10.014 10.014h-10.014v10.014h10.014v-10.014zm-10.014 10.014h-10.014v10.014h10.014v-10.014zm-10.014 10.014h-10.016v10.014h10.016v-10.014zm-10.016 10.014h-10.014v10.014h10.014v-10.014zm-10.009 10.17h-10.014v10.01h10.014v-10.014zm230.02-189.95h10.014v10.014h-10.014v-10.014zm140.04 0v10.014h10.014v-10.014h-10.014zm10.014 10.014v9.8594h9.8613v-9.8594h-9.8613zm0 9.8594h-10.014v10.014h10.014v-10.014zm0 10.014v10.014h9.8613v-10.014h-9.8613zm0 10.014h-10.014v10.012h10.014v-10.012zm-10.014 0v-10.014h-10.014v10.014h10.014zm-10.014-10.014v-10.014h-10.016v10.014h10.016zm0-10.014h10.014v-9.8594h-10.014v9.8594zm149.9-19.873h10.016v10.014h-10.016v-10.014zm99.99 0h10.014v10.014h-10.014v-10.014zm-59.932 10.014v9.8594h10.014v-9.8594h-10.014zm0 9.8594h-10.016v10.014h10.016v-10.014zm-10.016 10.014h-10.014v10.014h10.014v-10.014zm-10.014 10.014h-10.014v10.012h10.014v-10.012zm-10.014 10.012h-10.016v10.012h10.016v-10.012zm-10.016 10.012h-10.014v10.014h10.014v-10.014zm-10.014 10.014h-9.8594v10.014h9.8594v-10.014zm-9.8594 10.014h-10.016v10.014h10.016v-10.014zm-10.016 10.014h-10.014v10.014h10.014v-10.014zm-10.014 10.014h-10.014v10.014h10.014v-10.014zm-10.014 10.014h-10.014v10.014h10.014v-10.014zm-10.014 10.014h-10.016v9.8594h10.016v-9.8594zm-10.016 9.8594h-10.014v10.014h10.014v-10.014zm-10.014 10.014h-10.014v10.014h10.014v-10.014zm-10.014 10.014h-10.016v10.014h10.016v-10.014zm-10.016 10.014h-10.012v10.014h10.012v-10.014zm-10.012 10.014h-9.8613v10.014h9.8613v-10.014zm170.09-159.91v9.8594h10.016v-9.8594h-10.016zm10.016 9.8594v10.014h10.014v-10.014h-10.014zm10.014 10.014v10.014h10.014v-10.014h-10.014zm10.014 10.014v10.012h9.8613v10.012h10.014v-10.012h-9.8594v-10.012h-10.016zm19.875 20.023v10.014h10.014v-10.014h-10.014zm10.014 10.014v10.014h10.016v-10.014h-10.016zm10.01 10.08v10.014h10.014v-10.014h-10.014zm10.014 10.014v10.014h10.014v-10.014h-10.014zm10.014 10.014v10.014h10.016v-10.014h-10.016zm10.016 10.014v10.014h10.014v-10.014h-10.014zm10.014 10.014v9.8594h10.012v-9.8594h-10.012zm10.012 9.8594v10.014h10.014v-10.014h-10.014zm10.014 10.014v10.014h10.016v-10.014h-10.016zm10.016 10.014v10.014h10.014v-10.014h-10.014zm10.014 10.014v10.014h9.8594v-10.014h-9.8594zm9.8594 10.014v10.014h10.016v-10.014h-10.016zm10.016 10.014v10.014h10.014v-10.014h-10.014zm-349.88-160.06v10.014h9.8613v-10.014h-9.8613zm-290.1 10.014h10.014v10.014h-10.014v-10.014zm160.07 0h10.014v10.014h-10.014v-10.014zm220 0h10.016v10.014h-10.016v-10.014zm159.92 0h10.014v10.014h-10.014v-10.014zm-570.04 30.037h10.014v10.014h-10.014v-10.014zm110 0v10.014h10.016v-10.014h-10.016zm10.016 10.014v10.014h10.014v-10.014h-10.014zm10.014 10.014v10.014h10.014v-10.014h-10.014zm0 10.014h-10.014v10.014h10.014v-10.014zm-10.014 10.014h-10.016v10.014h10.016v-10.014zm-10.016 0v-10.014h-10.014v10.014h10.014zm-10.014-10.014v-10.014h-10.014v10.014h10.014zm0-10.014h10.014v-10.014h-10.014v10.014zm10.014 0v10.014h10.016v-10.014h-10.016zm110-20.027h10.016v10.014h-10.016v-10.014zm160.07 0h10.014v10.014h-10.014v-10.014zm220.01 0h10.014v10.014h-10.014v-10.014zm-629.97 30.041h10.014v10.014h-10.014v-10.014zm279.94 0h10.016v10.014h-10.016v-10.014zm99.988 0h10.014v10.014h-10.014v-10.014zm280.09 0h10.016v10.014h-10.016v-10.014zm-419.98 10.014v10.014h9.8594v-10.014h-9.8594zm9.8594 10.014v10.014h10.016v-10.014h-10.016zm10.016 10.014v9.8594h10.014v-9.8594h-10.014zm10.014 9.8594v10.014h10.014v-10.014h-10.014zm10.014 10.014v10.014h10.016v-10.014h-10.016zm10.016 10.014v10.014h10.014v-10.014h-10.014zm10.014 10.014v10.014h10.014v-10.014h-10.014zm10.014 10.014v10.014h10.016v-10.014h-10.016zm10.016 10.014v10.014h10.014v-10.014h-10.014zm10.014 10.014v10.014h10.014v-10.014h-10.014zm10.014 0h9.8613v-10.014h-9.8613v10.014zm139.89-89.969v10.014 10.014 9.8594 10.014 10.014h10.014v10.014h10.014v10.014h10.016v10.014h10.014v-10.014-10.014-10.014-10.014-10.014h-10.014v-9.8594h-10.016v-10.014h-10.014v-10.014h-10.014zm30.043 79.955h-10.016v-10.014h-10.014v-10.014h-10.014v-10.014h-10.016-10.014-9.8594-10.016-10.014v10.014h10.014v10.014h10.016v10.014h9.8594v10.014h10.014 10.016 10.014 10.014 10.016v-10.014zm50.07-79.955v10.014h-10.014v10.014h-10.014v9.8594h-10.016v10.014 10.014 10.014 10.014 10.014h10.016v-10.014h10.014v-10.014h10.014v-10.014h9.8613v-10.014-10.014-9.8594-10.014-10.014h-9.8613zm9.8613 49.914v10.014h-9.8613v10.014h-10.014v10.014h-10.014v10.014h10.014 10.014 9.8613 10.014 10.014v-10.014h10.016v-10.014h10.014v-10.014h10.014v-10.014h-10.014-10.014-10.016-10.014-10.014zm-509.96-39.9v10.014h10.014v-10.014h-10.014zm10.014 10.014v9.8594h10.016v-9.8594h-10.016zm10.016 0h10.014v-10.014h-10.014v10.014zm0 9.8594v10.014h10.014v-10.014h-10.014zm10.014 10.014v10.014h10.014v-10.014h-10.014zm-20.029-10.014h-10.014v10.014h10.014v-10.014zm130.03-19.873v10.014h10.014v-10.014h-10.014zm10.014 10.014v9.8594h10.016v-9.8594h-10.016zm10.016 0h10.014v-10.014h-10.014v10.014zm0 9.8594v10.014h10.014v-10.014h-10.014zm-10.016 0h-10.014v10.014h10.014v-10.014zm-10.014 10.014h-10.014v10.014h10.014v-10.014zm-230.02-19.873h10.016v9.8594h-10.016v-9.8594zm340.02 0h10.016v9.8594h-10.016v-9.8594zm40.057 0h9.8613v9.8594h-9.8613v-9.8594zm339.87 0h10.016v9.8594h-10.016v-9.8594zm-660.01 49.914v10.014h10.014v-10.014h-10.014zm10.014 10.014v10.014h10.016v-10.014h-10.016zm10.016 10.014v10.014h10.014v-10.014h-10.014zm-10.016 0h-10.014v10.014h10.014v-10.014zm-10.014 0v-10.014h-10.014v10.014h10.014zm-10.014 0h-9.8613v10.014h9.8613v-10.014zm230.02-20.027v10.014h10.016v-10.014h-10.016zm10.016 10.014v10.014h10.014v-10.014h-10.014zm10.014 10.014v10.014h10.014v-10.014h-10.014zm-10.014 0h-10.016v10.014h10.016v-10.014zm-10.016 0v-10.014h-9.8594v10.014h9.8594zm-110-10.014v10.014h-10.014v10.014h30.043v-10.014h-10.014v-10.014h-10.016zm90.129 10.014v10.014h9.8594v-10.014h-9.8594z" fill-rule="evenodd" transform="translate(-109.35 367.23)" fill="#ff595e"/>
<path id="path4149" d="m440.01 10v0.01367h10.014v-0.01367h-10.014zm10.014 0.01367v10.014h10.016v-10.014h-10.016zm10.016 0h10.014v-0.01367h-10.014v0.01367zm10.014 0v10.014h10.014v-10.014h-10.014zm10.014 0h10.014v-0.01367h-10.014v0.01367zm-10.014 10.014h-10.014v10.014h10.014v-10.014zm89.98-10.028v0.01367h10.014v10.014h10.014v-10.014h10.016v-0.01367h-30.043zm99.988 0v0.01367h10.014v-0.01367h-10.014zm10.014 0.01367v10.014h10.016v-10.014h-10.016zm10.016 0h10.014v-0.01367h-10.014v0.01367zm10.014 0v10.014h10.012v-10.014h-10.012zm10.012 0h10.014v-0.01367h-10.014v0.01367zm-10.012 10.014h-10.014v10.014h10.014v-10.014zm-560.03-10.014v10.014h-10.016v10.014h-10.014v10.014h-10.014v10.014h10.014 10.014 10.016 10.014 10.014v-10.014h10.014v-10.014h9.8613v-10.014h10.014v-10.014h-10.014-9.8613-10.014-10.014-10.014zm49.916 10.014v10.014h-10.014v10.014h-9.8613v10.014h-10.014v9.8594 10.012 10.014 10.014 10.014h10.014v-10.014h9.8613v-10.014h10.014v-10.014h10.014v-10.012-9.8594-10.014-10.014-10.014h-10.014zm30.043-10.014v10.014h10.014v10.014h10.014v10.014h10.016v10.014h10.014 10.014 10.016 10.014 10.014v-10.014h-10.014v-10.014h-10.014v-10.014h-10.016v-10.014h-10.014-10.014-10.016-10.014-10.014zm30.043 40.055h-10.016v-10.014h-10.014v-10.014h-10.014v-10.014h-10.014v10.014 10.014 10.014 9.8594 10.012h10.014v10.014h10.014v10.014h10.014v10.014h10.016v-10.014-10.014-10.014-10.012-9.8594zm-230.02-20.028v10.014 10.014 9.8594h10.014 10.016 10.014v-9.8594h-10.014v-10.014h-10.016v-10.014h-10.014zm30.043 29.887v10.012 10.014 10.014h10.014 10.014 9.8613v-10.014h-9.8613v-10.014h-10.014v-10.012h-10.014zm29.889 30.039v10.014 10.014 10.014h10.014 10.014 10.016v-10.014h-10.016v-10.014h-10.014v-10.014h-10.014zm30.043 30.041v10.014 10.014 10.014h10.014 10.014 10.016v-10.014h-10.016v-10.014h-10.014v-10.014h-10.014zm30.043 30.041v10.014 9.8594 10.014h10.014 10.014 10.014v-10.014h-10.014v-9.8594h-10.014v-10.014h-10.014zm30.041 29.887v10.014 10.014 10.012h9.8613 10.014 10.014v-10.012h-10.014v-10.014h-10.014v-10.014h-9.8613zm0 30.039h-10.014-10.014-10.014v10.014h10.014v10.014h10.014v10.014h10.014v-10.014-10.014-10.014zm0 30.041v10.014h9.8613v10.014h10.014v10.014h10.014v-10.014-10.014-10.014h-10.014-10.014-9.8613zm-30.041-30.041v-10.012-10.014-10.014h-10.016-10.014-10.014v10.014h10.014v10.014h10.014v10.012h10.016zm-30.043-30.039v-10.014-9.8594-10.014h-10.016-10.014-10.014v10.014h10.014v9.8594h10.014v10.014h10.016zm-30.043-29.887v-10.014-10.014-10.014h-9.8613-10.014-10.014v10.014h10.014v10.014h10.014v10.014h9.8613zm-29.889-30.041v-10.014-10.014-10.014h-10.014-10.016-10.014v10.014h10.014v10.014h10.016v10.014h10.014zm330.01-89.967v10.014h-10.016v10.014h-10.014v9.8594h10.014 10.016 10.014v-9.8594-10.014-10.014h-10.014zm-20.029 29.887h-10.014v10.012h-10.016v10.014h-10.014v10.014h10.014 10.016 10.014v-10.014-10.014-10.012zm0 30.039v10.014 10.014 10.014h10.014v-10.014h10.016v-10.014h10.014v-10.014h-10.014-10.016-10.014zm0 30.041h-10.014-10.016-10.014v10.014 10.014 10.014h10.014v-10.014h10.016v-10.014h10.014v-10.014zm-30.043 30.041h-10.014-10.016-9.8594v10.014 9.8594 10.014h9.8594v-10.014h10.016v-9.8594h10.014v-10.014zm-29.889 29.887h-10.014-10.014-10.016v10.014 10.014 10.012h10.016v-10.012h10.014v-10.014h10.014v-10.014zm-30.043 30.039h-10.014-10.014-10.016v10.014 10.014 10.014h10.016v-10.014h10.014v-10.014h10.014v-10.014zm-30.043 30.041h-10.014-10.014-10.014v10.014 10.014 10.014h10.014v-10.014h10.014v-10.014h10.014v-10.014zm0-30.041v-10.012-10.014-10.014h-10.014v10.014h-10.014v10.014h-10.014v10.012h10.014 10.014 10.014zm0-30.039h10.016 10.014 10.014v-10.014-9.8594-10.014h-10.014v10.014h-10.014v9.8594h-10.016v10.014zm30.043-29.887h10.016 10.014 10.014v-10.014-10.014-10.014h-10.014v10.014h-10.014v10.014h-10.016v10.014zm30.043-30.041h9.8594 10.016 10.014v-10.014-10.014-10.014h-10.014v10.014h-10.016v10.014h-9.8594v10.014zm99.988-89.967v10.014 10.014 9.8594h10.014 9.8613 10.012v-9.8594h-10.012v-10.014h-9.8613v-10.014h-10.014zm29.887 29.887v10.012 10.014 10.014h10.016 10.014 10.014v-10.014h-10.014v-10.014h-10.014v-10.012h-10.016zm30.043 30.039v10.014 10.014 10.014h10.016 10.014 10.014v-10.014h-10.014v-10.014h-10.014v-10.014h-10.016zm30.043 30.041v10.014 10.014 10.014h10.014 10.016 9.8594v-10.014h-9.8594v-10.014h-10.016v-10.014h-10.014zm29.889 30.041v10.014 9.8594 10.014h10.014 10.016 10.014v-10.014h-10.014v-9.8594h-10.016v-10.014h-10.014zm30.043 29.887v10.014 10.014 10.012h10.014 10.016 10.014v-10.012h-10.014v-10.014h-10.016v-10.014h-10.014zm0 30.039h-10.014-10.016-10.014v10.014h10.014v10.014h10.016v10.014h10.014v-10.014-10.014-10.014zm0 30.041v10.014h10.014v10.014h10.016v10.014h10.014v-10.014-10.014-10.014h-10.014-10.016-10.014zm-30.043-30.041v-10.012-10.014-10.014h-9.8594-10.016-10.014v10.014h10.014v10.014h10.016v10.012h9.8594zm-29.889-30.039v-10.014-9.8594-10.014h-10.014-10.014-10.016v10.014h10.016v9.8594h10.014v10.014h10.014zm-30.043-29.887v-10.014-10.014-10.014h-10.014-10.014-10.016v10.014h10.016v10.014h10.014v10.014h10.014zm-30.043-30.041v-10.014-10.014-10.014h-10.012-9.8613-10.014v10.014h10.014v10.014h9.8613v10.014h10.012zm330.01-89.967v10.014h-10.016v10.014h-9.8594v9.8594h9.8594 10.016 10.014v-9.8594-10.014-10.014h-10.014zm-19.875 29.887h-10.014v10.012h-10.016v10.014h-10.014v10.014h10.014 10.016 10.014v-10.014-10.014-10.012zm0 30.039v10.014 10.014 10.014h9.8594v-10.014h10.016v-10.014h10.014v-10.014h-10.014-10.016-9.8594zm0 30.041h-10.014-10.016-10.014v10.014 10.014 10.014h10.014v-10.014h10.016v-10.014h10.014v-10.014zm-30.043 30.041h-10.012-10.014-10.016v10.014 9.8594 10.014h10.016v-10.014h10.014v-9.8594h10.012v-10.014zm-30.041 29.887h-10.014-10.014-10.016v10.014 10.014 10.012h10.016v-10.012h10.014v-10.014h10.014v-10.014zm-30.043 30.039h-10.014-10.014-9.8613v10.014 10.014 10.014h9.8613v-10.014h10.014v-10.014h10.014v-10.014zm-29.889 30.041h-10.014-10.014-10.016v10.014 10.014 10.014h10.016v-10.014h10.014v-10.014h10.014v-10.014zm0-30.041v-10.012-10.014-10.014h-10.014v10.014h-10.014v10.014h-10.016v10.012h10.016 10.014 10.014zm0-30.039h9.8613 10.014 10.014v-10.014-9.8594-10.014h-10.014v10.014h-10.014v9.8594h-9.8613v10.014zm29.889-29.887h10.016 10.014 10.014v-10.014-10.014-10.014h-10.014v10.014h-10.014v10.014h-10.016v10.014zm30.043-30.041h10.016 10.014 10.012v-10.014-10.014-10.014h-10.012v10.014h-10.014v10.014h-10.016v10.014zm-150.07-69.942v9.8594h10.016v-9.8594h-10.016zm0 9.8594h-10.014v10.012h10.014v-10.012zm-10.014 10.012h-9.8594v10.014h9.8594v-10.014zm0 10.014v10.014h10.014v-10.014h-10.014zm-9.8594 0h-10.016v10.014h10.016v-10.014zm0-10.014v-10.012h-10.016v10.012h10.016zm119.86-19.871v9.8594h10.014v-9.8594h-10.014zm10.014 9.8594v10.012h10.014v-10.012h-10.014zm10.014 10.012v10.014h10.016v-10.014h-10.016zm10.016 0h10.014v-10.012h-10.014v10.012zm0 10.014v10.014h10.014v-10.014h-10.014zm-10.016 0h-10.014v10.014h10.014v-10.014zm-69.945 10.014v10.014h10.014v-10.014h-10.014zm10.014 10.014v10.014h10.016v-10.014h-10.016zm10.016 10.014v10.014h10.014v-10.014h-10.014zm0 10.014h-10.016v10.014h10.016v-10.014zm-10.016 10.014h-10.014v10.014h10.014v-10.014zm-10.014 0v-10.014h-10.014v10.014h10.014zm-10.014-10.014v-10.014h-10.016v10.014h10.016zm0-10.014h10.014v-10.014h-10.014v10.014zm10.014 0v10.014h10.014v-10.014h-10.014zm-570.04 40.05v10.014h10.014v-10.014h-10.014zm10.014 10.014v9.8594h10.014v-9.8594h-10.014zm10.014 9.8594v10.014h10.016v-10.014h-10.016zm0 10.014h-10.014v10.014h10.014v-10.014zm-10.014 10.014h-10.014v10.014h10.014v-10.014zm0-10.014v-10.014h-10.014v10.014h10.014zm739.97-19.873v9.8594h10.014v-9.8594h-10.014zm0 9.8594h-10.016v10.014h10.016v-10.014zm0 10.014v10.014h10.014v-10.014h-10.014zm-409.96 10.014v10.014 10.012 10.014 10.014 10.014h10.014v10.014h10.014v10.014h10.016v10.014h10.014v-10.014-10.014-10.014-10.014-10.014h-10.014v-10.014h-10.016v-10.012h-10.014v-10.014h-10.014zm30.043 80.107h-10.016v-10.014h-10.014v-10.014h-10.014v-10.014h-10.016-10.014-10.014-10.016-9.8594v10.014h9.8594v10.014h10.016v10.014h10.014v9.8594h10.014 10.016 10.014 10.014 10.016v-9.8594zm49.914-80.107v10.014h-10.012v10.012h-9.8613v10.014h-10.014v10.014 10.014 10.014 10.014 10.014h10.014v-10.014h9.8613v-10.014h10.012v-10.014h10.016v-10.014-10.014-10.014-10.012-10.014h-10.016zm10.016 50.066v10.014h-10.016v10.014h-10.012v10.014h-9.8613v9.8594h9.8613 10.012 10.016 10.014 10.014v-9.8594h10.016v-10.014h10.014v-10.014h10.014v-10.014h-10.014-10.014-10.016-10.014-10.014zm-369.91-40.053v10.012h9.8613v-10.012h-9.8613zm9.8613 10.012v10.014h10.014v-10.014h-10.014zm10.014 0h10.014v-10.012h-10.014v10.012zm0 10.014v10.014h10.014v-10.014h-10.014zm-10.014 0h-9.8613v10.014h9.8613v-10.014zm-9.8613 10.014h-10.014v10.014h10.014v-10.014zm619.96-30.039v10.012h10.014v-10.012h-10.014zm10.014 10.012v10.014h10.012v-10.014h-10.012zm10.012 0h10.014v-10.012h-10.014v10.012zm0 10.014v10.014h10.014v-10.014h-10.014zm10.014 10.014v10.014h10.016v-10.014h-10.016zm-20.025-10.014h-10.014v10.014h10.014v-10.014zm-580.05 40.055v10.014h10.014v-10.014h-10.014zm10.014 10.014v9.8594h10.016v-9.8594h-10.016zm10.016 9.8594v10.014h10.014v-10.014h-10.014zm0 10.014h-10.016v10.014h10.016v-10.014zm-10.016 10.014h-10.014v10.014h10.014v-10.014zm-10.014 0v-10.014h-10.014v10.014h10.014zm-10.014-10.014v-10.014h-10.016v10.014h10.016zm0-10.014h10.014v-9.8594h-10.014v9.8594zm10.014 0v10.014h10.014v-10.014h-10.014zm540.01-19.85v10.014h10.014v-10.014h-10.014zm10.014 10.014v9.8594h10.014v-9.8594h-10.014zm10.014 9.8594v10.014h10.016v-10.014h-10.016zm0 10.014h-10.014v10.014h10.014v-10.014zm-10.014 10.014h-10.014v10.014h10.014v-10.014zm-10.014 0v-10.014h-10.016v10.014h10.016zm-10.016-10.014v-10.014h-10.014v10.014h10.014zm0-10.014h10.016v-9.8594h-10.016v9.8594zm10.016 0v10.014h10.014v-10.014h-10.014zm-650-9.8594v9.8594 10.014 10.014h10.014v-10.014h10.014v-10.014h-10.014v-9.8594h-10.014zm749.99 9.8594v10.014h10.014v-10.014h-10.014zm-429.99 10.014v10.014h-10.014v10.014h-10.016v10.014h-9.8594v10.014h9.8594 10.016 10.014 10.014 10.016v-10.014h10.014v-10.014h10.014v-10.014h10.016v-10.014h-10.016-10.014-10.014-10.016-10.014zm50.072 10.014v10.014h-10.016v10.014h-10.014v10.014h-10.014v10.014 10.014 10.014 10.014 10.014h10.014v-10.014h10.014v-10.014h10.016v-10.014h10.014v-10.014-10.014-10.014-10.014-10.014h-10.014zm30.041-10.014v10.014h9.8613v10.014h10.012v10.014h10.016v10.014h10.014 10.014 10.016 10.014 10.014v-10.014h-10.014v-10.014h-10.014v-10.014h-10.016v-10.014h-10.014-10.014-10.016-10.012-9.8613zm29.889 40.055h-10.016v-10.014h-10.012v-10.014h-9.8613v-10.014h-10.014v10.014 10.014 10.014 10.014 10.014h10.014v10.014h9.8613v10.014h10.012v10.014h10.016v-10.014-10.014-10.014-10.014-10.014zm-250.05-30.041v10.014h-10.014v10.014h-9.8613v10.014h9.8613 10.014 10.014v-10.014-10.014-10.014h-10.014zm-19.875 30.041h-10.014v10.014h-10.014v10.014h-10.014v10.014h10.014 10.014 10.014v-10.014-10.014-10.014zm0 30.041v10.014 10.014 9.8594h9.8613v-9.8594h10.014v-10.014h10.014v-10.014h-10.014-10.014-9.8613zm0 29.887h-10.014-10.014-10.014v10.014 10.014 10.012h10.014v-10.012h10.014v-10.014h10.014v-10.014zm-30.041 30.039h-10.016-10.014-10.014v10.012 10.014 10.014h10.014v-10.014h10.014v-10.014h10.016v-10.012zm-30.043 30.039h-10.016-10.014-10.014v10.014 10.014 10.014h10.014v-10.014h10.014v-10.014h10.016v-10.014zm-30.043 30.041h-9.8613-10.014-10.014v10.014 9.8594 10.014h10.014v-10.014h10.014v-9.8594h9.8613v-10.014zm-29.889 29.887h-10.014-10.016-10.014v10.014 10.014 10.014h10.014v-10.014h10.016v-10.014h10.014v-10.014zm0-29.887v-10.014-10.014-10.014h-10.014v10.014h-10.016v10.014h-10.014v10.014h10.014 10.016 10.014zm0-30.041h10.014 10.014 9.8613v-10.014-10.014-10.012h-9.8613v10.012h-10.014v10.014h-10.014v10.014zm29.889-30.039h10.014 10.014 10.016v-10.012-10.014-10.014h-10.016v10.014h-10.014v10.014h-10.014v10.012zm30.043-30.039h10.014 10.014 10.016v-9.8594-10.014-10.014h-10.016v10.014h-10.014v10.014h-10.014v9.8594zm99.988-89.969v10.014 10.014 10.014h10.014 10.014 10.014v-10.014h-10.014v-10.014h-10.014v-10.014h-10.014zm30.041 30.041v10.014 10.014 10.014h10.016 10.014 10.014v-10.014h-10.014v-10.014h-10.014v-10.014h-10.016zm30.043 30.041v10.014 10.014 9.8594h10.016 10.014 10.014v-9.8594h-10.014v-10.014h-10.014v-10.014h-10.016zm30.043 29.887v10.014 10.014 10.012h9.8594 10.016 10.014v-10.012h-10.014v-10.014h-10.016v-10.014h-9.8594zm29.889 30.039v10.012 10.014 10.014h10.014 10.016 10.014v-10.014h-10.014v-10.014h-10.016v-10.012h-10.014zm30.043 30.039v10.014 10.014 10.014h10.014 10.016 10.014v-10.014h-10.014v-10.014h-10.016v-10.014h-10.014zm0 30.041h-10.014-10.016-10.014v10.014h10.014v9.8594h10.016v10.014h10.014v-10.014-9.8594-10.014zm0 29.887v10.014h10.014v10.014h10.016v10.014h10.014v-10.014-10.014-10.014h-10.014-10.016-10.014zm-30.043-29.887v-10.014-10.014-10.014h-10.014-10.016-9.8594v10.014h9.8594v10.014h10.016v10.014h10.014zm-29.889-30.041v-10.014-10.014-10.012h-10.014-10.014-10.016v10.012h10.016v10.014h10.014v10.014h10.014zm-30.043-30.039v-10.012-10.014-10.014h-10.014-10.014-10.016v10.014h10.016v10.014h10.014v10.012h10.014zm-30.043-30.039v-9.8594-10.014-10.014h-10.014-10.014-10.014v10.014h10.014v10.014h10.014v9.8594h10.014zm330.01-89.969v10.014h-10.016v10.014h-10.014v10.014h10.014 10.016 10.014v-10.014-10.014-10.014h-10.014zm-20.029 30.041h-10.014v10.014h-10.016v10.014h-10.014v10.014h10.014 10.016 10.014v-10.014-10.014-10.014zm0 30.041v10.014 10.014 9.8594h10.014v-9.8594h10.016v-10.014h10.014v-10.014h-10.014-10.016-10.014zm0 29.887h-10.014-10.016-10.014v10.014 10.014 10.012h10.014v-10.012h10.016v-10.014h10.014v-10.014zm-30.043 30.039h-9.8594-10.016-10.014v10.012 10.014 10.014h10.014v-10.014h10.016v-10.014h9.8594v-10.012zm-29.889 30.039h-10.014-10.014-10.016v10.014 10.014 10.014h10.016v-10.014h10.014v-10.014h10.014v-10.014zm-30.043 30.041h-10.014-10.014-10.016v10.014 9.8594 10.014h10.016v-10.014h10.014v-9.8594h10.014v-10.014zm-30.043 29.887h-10.012-9.8613-10.014v10.014 10.014 10.014h10.014v-10.014h9.8613v-10.014h10.012v-10.014zm0-29.887v-10.014-10.014-10.014h-10.012v10.014h-9.8613v10.014h-10.014v10.014h10.014 9.8613 10.012zm0-30.041h10.016 10.014 10.014v-10.014-10.014-10.012h-10.014v10.012h-10.014v10.014h-10.016v10.014zm30.043-30.039h10.016 10.014 10.014v-10.012-10.014-10.014h-10.014v10.014h-10.014v10.014h-10.016v10.012zm30.043-30.039h10.014 10.016 9.8594v-9.8594-10.014-10.014h-9.8594v10.014h-10.016v10.014h-10.014v9.8594zm99.988-89.969v10.014 10.014 10.014h10.016 10.014 10.014v-10.014h-10.014v-10.014h-10.014v-10.014h-10.016zm30.043 30.041v10.014 10.014 10.014h9.8613 10.014 10.014v-10.014h-10.014v-10.014h-10.014v-10.014h-9.8613zm29.889 30.041v10.014 10.014 9.8594h10.016 10.014 10.014v-9.8594h-10.014v-10.014h-10.014v-10.014h-10.016zm30.043 29.887v10.014 10.014 10.012h10.016 10.014 10.012v-10.012h-10.012v-10.014h-10.014v-10.014h-10.016zm30.041 30.039v10.012 10.014 10.014h10.014 10.016 10.014v-10.014h-10.014v-10.014h-10.016v-10.012h-10.014zm30.043 30.039v10.014 10.014 10.014h9.8594 10.016 10.014v-10.014h-10.014v-10.014h-10.016v-10.014h-9.8594zm0 30.041h-10.014-10.016-10.014v10.014h10.014v9.8594h10.016v10.014h10.014v-10.014-9.8594-10.014zm0 29.887v10.014h9.8594v10.014h10.016v10.014h10.014v-10.014-10.014-10.014h-10.014-10.016-9.8594zm-30.043-29.887v-10.014-10.014-10.014h-10.012-10.014-10.016v10.014h10.016v10.014h10.014v10.014h10.012zm-30.041-30.041v-10.014-10.014-10.012h-10.014-10.014-10.016v10.012h10.016v10.014h10.014v10.014h10.014zm-30.043-30.039v-10.012-10.014-10.014h-10.014-10.014-9.8613v10.014h9.8613v10.014h10.014v10.012h10.014zm-29.889-30.039v-9.8594-10.014-10.014h-10.014-10.014-10.016v10.014h10.016v10.014h10.014v9.8594h10.014zm-560.03-59.928v10.014h10.014v-10.014h-10.014zm10.014 10.014v10.014h9.8613v-10.014h-9.8613zm9.8613 10.014v10.014h10.014v-10.014h-10.014zm10.014 0h10.014v-10.014h-10.014v10.014zm0 10.014v10.014h10.014v-10.014h-10.014zm-10.014 0h-9.8613v10.014h9.8613v-10.014zm640.14-30.041v10.014h10.016v-10.014h-10.016zm0 10.014h-10.014v10.014h10.014v-10.014zm-10.014 10.014h-10.012v10.014h10.012v-10.014zm0 10.014v10.014h10.014v-10.014h-10.014zm-10.012 0h-10.014v10.014h10.014v-10.014zm0-10.014v-10.014h-10.014v10.014h10.014zm-690.06 20.05v10.014h10.014v-10.014h-10.014zm10.014 10.014v9.8594h10.014v-9.8594h-10.014zm10.014 9.8594v10.014h10.016v-10.014h-10.016zm0 10.014h-10.014v10.014h10.014v-10.014zm-10.014 10.014h-10.014v10.012h10.014v-10.012zm0-10.014v-10.014h-10.014v10.014h10.014zm739.97-19.873v9.8594h10.014v-9.8594h-10.014zm0 9.8594h-10.016v10.014h10.016v-10.014zm0 10.014v10.014h10.014v-10.014h-10.014zm-179.95 30.037v10.014h10.014v-10.014h-10.014zm10.014 10.014v10.014h10.016v-10.014h-10.016zm10.016 10.014v10.014h10.014v-10.014h-10.014zm0 10.014h-10.016v10.014h10.016v-10.014zm-10.016 10.014h-10.014v10.014h10.014v-10.014zm-10.014 0v-10.014h-10.014v10.014h10.014zm-10.014-10.014v-10.014h-10.016v10.014h10.016zm0-10.014h10.014v-10.014h-10.014v10.014zm10.014 0v10.014h10.014v-10.014h-10.014zm-419.98 20.027v10.014 10.014 9.8594 10.014 10.014h10.014v10.014h9.8613v10.014h10.014v10.014h10.014v-10.014-10.014-10.014-10.014-10.014h-10.014v-9.8594h-10.014v-10.014h-9.8613v-10.014h-10.014zm29.889 79.955h-10.014v-10.014h-9.8613v-10.014h-10.014v-10.014h-10.014-10.014-10.016-10.014-10.014v10.014h10.014v10.014h10.014v10.014h10.016v10.014h10.014 10.014 10.014 9.8613 10.014v-10.014zm50.07-79.955v10.014h-10.014v10.014h-10.014v9.8594h-10.014v10.014 10.014 10.014 10.014 10.014h10.014v-10.014h10.014v-10.014h10.014v-10.014h10.016v-10.014-10.014-9.8594-10.014-10.014h-10.016zm10.016 49.914v10.014h-10.016v10.014h-10.014v10.014h-10.014v10.014h10.014 10.014 10.016 10.014 10.014v-10.014h10.016v-10.014h10.014v-10.014h10.014v-10.014h-10.014-10.014-10.016-10.014-10.014zm250.04-39.9v10.014h10.016v-10.014h-10.016zm10.016 10.014v9.8594h9.8594v-9.8594h-9.8594zm9.8594 0h10.014v-10.014h-10.014v10.014zm0 9.8594v10.014h10.014v-10.014h-10.014zm10.014 10.014v10.014h10.016v-10.014h-10.016zm-19.873-10.014h-10.016v10.014h10.016v-10.014zm129.88-19.873v10.014h10.014v-10.014h-10.014zm10.014 10.014v9.8594h10.016v-9.8594h-10.016zm10.016 0h10.014v-10.014h-10.014v10.014zm0 9.8594v10.014h10.014v-10.014h-10.014zm-10.016 0h-10.014v10.014h10.014v-10.014zm-10.014 10.014h-10.014v10.014h10.014v-10.014zm-169.93 30.041v10.014h10.014v-10.014h-10.014zm10.014 10.014v10.014h10.014v-10.014h-10.014zm10.014 10.014v10.014h10.014v-10.014h-10.014zm-10.014 0h-10.014v10.014h10.014v-10.014zm-10.014 0v-10.014h-10.016v10.014h10.016zm-10.016 0h-10.014v10.014h10.014v-10.014zm230.02-20.027v10.014h10.014v-10.014h-10.014zm10.014 10.014v10.014h10.012v-10.014h-10.012zm10.012 10.014v10.014h10.014v-10.014h-10.014zm-10.012 0h-10.014v10.014h10.014v-10.014zm-10.014 0v-10.014h-10.016v10.014h10.016zm-10.016 0h-10.014v10.014h10.014v-10.014zm-99.988-10.014v10.014h-10.014v10.014h30.043v-10.014h-10.016v-10.014h-10.014z" fill-rule="evenodd" transform="translate(-109.35 367.23)" fill="#6a4c93"/>
</g>
</pattern>
</defs>
<g id="layer1" transform="translate(109.35 182.77)">
<rect id="rect4169" height="1120" width="1520" y="-182.77" x="-109.35" fill="url(#pattern4175)"/>
</g>
</svg>
